<svg width="67" height="24" viewBox="0 0 67 24" fill="none" xmlns="http://www.w3.org/2000/svg">
<g clip-path="url(#clip0_13495_286117)">
<path d="M12.1787 24C18.8052 24 24.1787 18.6265 24.1787 12C24.1787 5.37355 18.8052 0 12.1787 0C5.55226 0 0.178711 5.37355 0.178711 12C0.178711 18.6265 5.55226 24 12.1787 24Z" fill="#01AED6"/>
<path d="M18.8553 10.9245C18.7105 10.3787 18.4043 9.89429 17.9699 9.53791C17.5356 9.17596 17.0066 8.96436 16.4442 8.91982H8.3365C8.25854 8.93095 8.17501 8.93095 8.09706 8.90868C8.0191 8.88641 7.94671 8.84743 7.88545 8.79731C7.8242 8.74719 7.77409 8.68037 7.74067 8.60798C7.70726 8.53559 7.69056 8.45764 7.69056 8.37411C7.69056 8.29058 7.70726 8.21262 7.74067 8.14023C7.77409 8.06784 7.8242 8.00102 7.88545 7.95091C7.94671 7.90079 8.0191 7.86181 8.09706 7.83954C8.17501 7.81726 8.25297 7.8117 8.3365 7.8284H16.2103C16.2103 7.8284 16.1824 5.74023 13.5374 5.74023H9.29427C7.47339 5.74023 5.54671 6.69801 5.42977 9.05346C5.30726 11.0191 5.30726 12.9848 5.42977 14.9504C5.54114 16.3203 5.91979 17.885 8.91562 18.1467C11.9059 18.4084 15.2191 18.2637 16.3829 18.002C17.0567 17.8405 17.6581 17.4729 18.1036 16.9439C18.549 16.4149 18.8107 15.7579 18.8553 15.0674C18.9722 13.4247 19.1449 12.0883 18.8553 10.9245ZM16.7337 13.4971V14.2265C16.7337 14.3602 16.6836 14.4827 16.5889 14.5774C16.4943 14.672 16.3718 14.7221 16.2381 14.7221C16.1045 14.7221 15.982 14.672 15.8873 14.5774C15.7926 14.4827 15.7425 14.3602 15.7425 14.2265V13.4971C15.6256 13.3968 15.5365 13.2632 15.4975 13.1073C15.4585 12.9569 15.4641 12.7955 15.5198 12.6507C15.5755 12.5059 15.6701 12.3778 15.7982 12.2887C15.9263 12.1996 16.0766 12.1495 16.2326 12.1495C16.3885 12.1495 16.5388 12.1996 16.6669 12.2887C16.795 12.3778 16.8952 12.5059 16.9453 12.6507C17.001 12.7955 17.0066 12.9569 16.9676 13.1073C16.9286 13.2576 16.8451 13.3913 16.7226 13.4971H16.7337Z" fill="white"/>
<path d="M39.2249 7.18359C37.0921 7.18359 35.3604 8.78731 35.3604 10.7697C35.3604 12.752 37.0921 14.3558 39.2249 14.3558C41.3576 14.3558 43.0894 12.7465 43.0894 10.7697C43.0894 8.79287 41.3631 7.18359 39.2249 7.18359ZM39.2249 12.6407C38.707 12.6574 38.2058 12.4736 37.8272 12.1228C37.4485 11.772 37.2202 11.282 37.2035 10.7641C37.2481 10.2574 37.4764 9.78406 37.855 9.43881C38.2337 9.09357 38.7237 8.90424 39.2304 8.90424C39.7371 8.90424 40.2327 9.09357 40.6058 9.43881C40.9789 9.78406 41.2128 10.2574 41.2573 10.7641C41.2462 11.0203 41.1905 11.2708 41.0847 11.5047C40.9789 11.7386 40.8286 11.9502 40.6392 12.1228C40.4499 12.2954 40.2327 12.4346 39.9877 12.5237C39.7483 12.6128 39.4921 12.6518 39.236 12.6462L39.2249 12.6407Z" fill="#080403"/>
<path d="M48.1118 7.18359C47.3211 7.18359 46.5583 7.46202 45.9569 7.96318V7.36735H44.019V16.8281H45.9569V13.4258C46.5583 13.9325 47.3267 14.211 48.1118 14.211C49.0418 14.211 49.9383 13.8435 50.5954 13.1808C51.2525 12.5237 51.6255 11.6272 51.6255 10.6973C51.6255 9.76735 51.258 8.87083 50.5954 8.21376C49.9383 7.55668 49.0418 7.18359 48.1118 7.18359ZM47.7499 12.6407C47.3601 12.6407 46.9759 12.5126 46.6585 12.2843C46.3411 12.056 46.1016 11.733 45.9736 11.3655V10.0291C46.1016 9.66155 46.3411 9.33858 46.6641 9.11028C46.9815 8.88197 47.3657 8.75946 47.7555 8.75946C48.2678 8.75946 48.7634 8.9655 49.1253 9.32745C49.4873 9.68939 49.6933 10.185 49.6933 10.6973C49.6933 11.2096 49.4873 11.7052 49.1253 12.0671C48.7634 12.4291 48.2678 12.6351 47.7555 12.6351L47.7499 12.6407Z" fill="#080403"/>
<path d="M65.0509 7.18359L62.8458 11.6439L60.6407 7.18359H58.6973L61.8713 13.6151L60.2954 16.8114H62.2444L62.8458 15.5864L63.8202 13.6151L66.9998 7.18359H65.0509Z" fill="#080403"/>
<path d="M34.4358 14.4274V7.24414H32.7207V7.90679C32.1972 7.53927 31.5791 7.31653 30.9388 7.27755C30.2984 7.233 29.658 7.36665 29.09 7.66177C28.5221 7.9569 28.0432 8.40238 27.7091 8.95365C27.375 9.50493 27.1968 10.1342 27.1968 10.7745C27.1968 11.4149 27.375 12.0441 27.7091 12.5954C28.0432 13.1467 28.5221 13.5922 29.09 13.8873C29.658 14.1824 30.2984 14.3161 30.9388 14.2715C31.5791 14.227 32.1972 14.0098 32.7207 13.6423V14.149C32.7207 15.0455 31.8409 15.7694 30.755 15.7694C30.3708 15.7861 29.9921 15.697 29.658 15.5021C29.3239 15.3073 29.0566 15.0233 28.8896 14.678L27.4529 15.8307C27.8149 16.3541 28.3105 16.7829 28.8784 17.0724C29.452 17.362 30.0868 17.5012 30.7272 17.4789C32.7095 17.4789 34.3244 16.1871 34.4079 14.5722V14.433H34.4413L34.4358 14.4274ZM30.8775 12.7569C30.5156 12.7569 30.1648 12.6567 29.8529 12.4729C29.5411 12.2892 29.2905 12.0219 29.1235 11.6989C28.9564 11.3815 28.8729 11.0195 28.8952 10.6632C28.9174 10.3012 29.0344 9.95597 29.2348 9.65528C29.4353 9.35458 29.7193 9.12071 30.0478 8.97036C30.3764 8.82001 30.7383 8.75876 31.0947 8.79774C31.4511 8.83672 31.7963 8.97593 32.0803 9.1931C32.3643 9.41027 32.587 9.70539 32.7207 10.0395V11.4929C32.5759 11.866 32.3197 12.1834 31.9912 12.4061C31.6627 12.6288 31.2729 12.7513 30.872 12.7513L30.8775 12.7569Z" fill="#080403"/>
<path d="M55.284 7.18359C52.8617 7.18359 52.0821 8.74276 51.7759 9.36642L53.4019 9.75065C53.4019 9.75065 53.5745 8.57014 55.323 8.57014C57.0715 8.57014 56.832 9.75065 55.206 9.96225C53.5801 10.1794 51.7759 10.5692 51.7759 12.095C51.7759 13.4147 52.9174 14.1664 54.5044 14.1664C56.0914 14.1664 56.6538 13.2365 56.6538 13.2365V14.1664H58.3578V9.66155C58.3578 8.62025 57.7007 7.18359 55.284 7.18359ZM54.5879 12.7465C53.0566 12.7465 53.2515 11.5604 54.1202 11.4657C55.2116 11.3432 56.1749 11.1706 56.6984 10.6694C56.6984 11.8332 56.1193 12.7465 54.5879 12.7465Z" fill="#080403"/>
</g>
<defs>
<clipPath id="clip0_13495_286117">
<rect width="66.8214" height="24" fill="white" transform="translate(0.178711)"/>
</clipPath>
</defs>
</svg>
